<?xml version="1.0" encoding="UTF-8" standalone="no"?>
<svg width="1247px" height="1247px" viewBox="0 0 1247 1247" version="1.1" xmlns="http://www.w3.org/2000/svg" xmlns:xlink="http://www.w3.org/1999/xlink" xmlns:sketch="http://www.bohemiancoding.com/sketch/ns">
    <!-- Generator: Sketch 3.3.2 (12043) - http://www.bohemiancoding.com/sketch -->
    <title>Untitled</title>
    <desc>Created with Sketch.</desc>
    <defs></defs>
    <g id="Page-1" stroke="none" stroke-width="1" fill="none" fill-rule="evenodd" sketch:type="MSPage">
        <g id="communist-star" sketch:type="MSLayerGroup" transform="translate(-658.000000, -118.000000)">
            <g id="g3069" transform="translate(1224.503503, 770.802335) rotate(-71.999999) translate(-1224.503503, -770.802335) translate(606.151656, 182.719460)" fill="#CC0000" sketch:type="MSShapeGroup">
                <path d="M999.679226,1175.98488 L0.164453176,449.794817 L608.850348,662.962628 L999.679226,1175.98488 L999.679226,1175.98488 Z" id="path3071"></path>
                <path d="M1235.63265,449.794817 L0.164453176,449.794817 L608.782644,679.175307 L1235.63265,449.794817 L1235.63265,449.794817 Z" id="path3073"></path>
                <path d="M236.117918,1175.98488 L1235.63265,449.794817 L607.195685,624.97964 L236.117918,1175.98488 L236.117918,1175.98488 Z" id="path3075"></path>
                <path d="M999.679226,1175.98488 L617.898546,0.984791723 L553.534358,673.099645 L999.679226,1175.98488 L999.679226,1175.98488 Z" id="path3077"></path>
                <path d="M236.117881,1175.98488 L617.898546,0.984791723 L657.953662,667.022377 L236.117881,1175.98488 L236.117881,1175.98488 Z" id="path3079"></path>
            </g>
            <path d="M1112.67391,649.63055 L1443.67391,649.63055 L1443.67391,980.63055 L1112.67391,980.63055 L1112.67391,649.63055 L1112.67391,649.63055 Z" id="path2454" stroke="#CC0000" stroke-width="0.1" sketch:type="MSShapeGroup"></path>
        </g>
        <path d="M798.017911,543 C793.540524,552.360443 789.716716,560.609051 785.667535,568.752486 C767.036799,606.149183 748.571334,643.621003 729.549953,680.814865 C724.869732,689.949936 724.726996,697.597553 729.452292,706.867847 C750.960276,749.012377 771.837218,791.472427 792.901971,833.827303 C794.509623,837.057633 795.884391,840.423185 797.905225,844.885547 L475,844.885547 L475,543 L798.017911,543 L798.017911,543 Z M744.709964,575.874235 L507.814136,575.874235 L507.814136,811.56808 L744.274245,811.56808 C741.990477,806.579851 740.292676,802.575745 738.354479,798.691837 C723.104319,767.868485 708.079532,736.924935 692.378628,706.334467 C687.83363,697.469842 687.871192,690.002523 692.453752,681.303171 C702.272451,662.657409 711.384985,643.636028 720.730403,624.734845 C728.543292,608.913744 736.266033,593.077617 744.709964,575.874235 L744.709964,575.874235 Z" id="Shape" fill="#FFFFFF" sketch:type="MSShapeGroup"></path>
        <path d="M629.732776,774.231483 L591.825237,722.230692 L584.433041,722.230692 L584.433041,774.231483 L542.611545,774.231483 L542.611545,610.611545 L608.014446,610.611545 C626.044191,610.611545 640.57316,614.998783 651.58633,623.780771 C662.607012,632.570272 668.338968,646.130143 668.804737,664.460384 C668.804737,693.435687 658.092063,711.292647 636.674228,718.076339 L681.282823,774.238995 L629.747801,774.238995 L629.732776,774.231483 Z M584.433041,686.63697 L608.698073,686.63697 C616.856533,686.63697 622.633564,683.526839 626.021654,677.28404 C629.402231,671.048753 629.402231,664.798442 626.021654,658.563155 C622.641076,652.327868 616.856533,649.210224 608.690561,649.210224 L584.425529,649.210224 L584.425529,686.651995 L584.433041,686.63697 Z" id="Shape" fill="#FFFFFF" sketch:type="MSShapeGroup"></path>
    </g>
</svg>